name C:/MyDriveSym/Projects/mobilecap/Data\Session20210813_0002\mocap\ForceDataProcessed\walkingTS1_forces.mot
datacolumns 19
datarows 17
range 0.91950000 0.92750000
endheader 
time	R_ground_force_vx	R_ground_force_vy	R_ground_force_vz	R_ground_force_px	R_ground_force_py	R_ground_force_pz	R_ground_torque_x	R_ground_torque_y	R_ground_torque_z	L_ground_force_vx	L_ground_force_vy	L_ground_force_vz	L_ground_force_px	L_ground_force_py	L_ground_force_pz	L_ground_torque_x	L_ground_torque_y	L_ground_torque_z	
          0.91950000	          0.00000000	          0.00000000	          0.00000000	          0.38206500	          0.00000000	         -0.13711900	          0.00000000	          0.00000000	          0.00000000	       -105.32569800	        748.71090700	         12.74596600	          0.88435700	          0.00600000	         -0.28414500	          0.00000000	         -0.76115500	          0.00000000	
          0.92000000	          0.00000000	          0.00000000	          0.00000000	          0.38294600	          0.00000000	         -0.13719600	          0.00000000	          0.00000000	          0.00000000	       -105.15134500	        748.27225000	         12.73183600	          0.88462700	          0.00600000	         -0.28415300	          0.00000000	         -0.76986400	          0.00000000	
          0.92050000	          0.00000000	          0.00000000	          0.00000000	          0.38382800	          0.00000000	         -0.13727300	          0.00000000	          0.00000000	          0.00000000	       -104.97584400	        747.82888800	         12.71625200	          0.88489800	          0.00600000	         -0.28416100	          0.00000000	         -0.77840500	          0.00000000	
          0.92100000	          0.00000000	          0.00000000	          0.00000000	          0.38471000	          0.00000000	         -0.13735100	          0.00000000	          0.00000000	          0.00000000	       -104.79922300	        747.38097000	         12.69922700	          0.88516900	          0.00600000	         -0.28416900	          0.00000000	         -0.78677900	          0.00000000	
          0.92150000	          0.00000000	          0.00000000	          0.00000000	          0.38559200	          0.00000000	         -0.13742800	          0.00000000	          0.00000000	          0.00000000	       -104.62150900	        746.92864400	         12.68077900	          0.88544200	          0.00600000	         -0.28417600	          0.00000000	         -0.79498500	          0.00000000	
          0.92200000	          0.00000000	          0.00000000	          0.00000000	          0.38647400	          0.00000000	         -0.13750500	          0.00000000	          0.00000000	          0.00000000	       -104.44272600	        746.47205700	         12.66092400	          0.88571500	          0.00600000	         -0.28418300	          0.00000000	         -0.80302100	          0.00000000	
          0.92250000	          0.00000000	          0.00000000	          0.00000000	          0.38735500	          0.00000000	         -0.13758200	          0.00000000	          0.00000000	          0.00000000	       -104.26290100	        746.01135500	         12.63967900	          0.88598900	          0.00600000	         -0.28419000	          0.00000000	         -0.81088800	          0.00000000	
          0.92300000	          0.00000000	          0.00000000	          0.00000000	          0.38823700	          0.00000000	         -0.13765900	          0.00000000	          0.00000000	          0.00000000	       -104.08206100	        745.54668600	         12.61706000	          0.88626400	          0.00600000	         -0.28419700	          0.00000000	         -0.81858500	          0.00000000	
          0.92350000	          0.00000000	          0.00000000	          0.00000000	          0.38911900	          0.00000000	         -0.13773600	          0.00000000	          0.00000000	          0.00000000	       -103.90022900	        745.07819400	         12.59308500	          0.88654000	          0.00600000	         -0.28420400	          0.00000000	         -0.82611000	          0.00000000	
          0.92400000	          0.00000000	          0.00000000	          0.00000000	          0.39000100	          0.00000000	         -0.13781300	          0.00000000	          0.00000000	          0.00000000	       -103.71743100	        744.60602500	         12.56777000	          0.88681600	          0.00600000	         -0.28421000	          0.00000000	         -0.83346400	          0.00000000	
          0.92450000	          0.00000000	          0.00000000	          0.00000000	          0.39088300	          0.00000000	         -0.13789100	          0.00000000	          0.00000000	          0.00000000	       -103.53369300	        744.13032500	         12.54113400	          0.88709300	          0.00600000	         -0.28421600	          0.00000000	         -0.84064600	          0.00000000	
          0.92500000	          0.00000000	          0.00000000	          0.00000000	          0.39176400	          0.00000000	         -0.13796800	          0.00000000	          0.00000000	          0.00000000	       -103.34903800	        743.65123800	         12.51319500	          0.88737100	          0.00600000	         -0.28422200	          0.00000000	         -0.84765500	          0.00000000	
          0.92550000	          0.00000000	          0.00000000	          0.00000000	          0.39264600	          0.00000000	         -0.13804500	          0.00000000	          0.00000000	          0.00000000	       -103.16349100	        743.16890700	         12.48397000	          0.88764900	          0.00600000	         -0.28422800	          0.00000000	         -0.85449100	          0.00000000	
          0.92600000	          0.00000000	          0.00000000	          0.00000000	          0.39352800	          0.00000000	         -0.13812200	          0.00000000	          0.00000000	          0.00000000	       -102.97707500	        742.68347600	         12.45347800	          0.88792900	          0.00600000	         -0.28423300	          0.00000000	         -0.86115300	          0.00000000	
          0.92650000	          0.00000000	          0.00000000	          0.00000000	          0.39441000	          0.00000000	         -0.13819900	          0.00000000	          0.00000000	          0.00000000	       -102.78981400	        742.19508800	         12.42173700	          0.88820900	          0.00600000	         -0.28423800	          0.00000000	         -0.86764200	          0.00000000	
          0.92700000	          0.00000000	          0.00000000	          0.00000000	          0.39529200	          0.00000000	         -0.13827600	          0.00000000	          0.00000000	          0.00000000	       -102.60173200	        741.70388400	         12.38876600	          0.88849000	          0.00600000	         -0.28424300	          0.00000000	         -0.87395600	          0.00000000	
          0.92750000	          0.00000000	          0.00000000	          0.00000000	          0.39617300	          0.00000000	         -0.13835400	          0.00000000	          0.00000000	          0.00000000	       -102.41285100	        741.21000800	         12.35458400	          0.88877100	          0.00600000	         -0.28424800	          0.00000000	         -0.88009500	          0.00000000	
